<svg xmlns="http://www.w3.org/2000/svg" width="1475px" height="851px" version="1.1" xml:space="preserve" style="fill-rule:evenodd;clip-rule:evenodd;stroke-linejoin:round;stroke-miterlimit:2;" xmlns:shaper="http://www.shapertools.com/namespaces/shaper">
    <g id="f9d30827-766e-4e6f-949d-b4837010c2e2">
        <ellipse id="b5af845a-d4ad-4fbe-a703-7a6fa1f92f44" cx="1098.76" cy="765.354" rx="148.488" ry="56.693" shaper:cutDepth=".1500in" shaper:toolDia=".0638in" shaper:cutType="guide" stroke-width="0.1" fill="#0068FF" />
    </g>
    <g id="8aea61a1-7d2f-4514-81d7-36cf123a86b7">
        <path id="c36f85a9-ac6b-4073-8c55-a85051fe5cd7" d="M1135.71,525.133C1252.33,671.702 1362.48,615.842 1362.48,615.842L1351.14,513.794L1237.75,479.779L1147.04,502.456C1147.04,502.456 1019.08,378.564 1135.71,525.133Z" shaper:toolDia="6.35mm" shaper:cutDepth="0.5in" shaper:cutType="inside" stroke-width="0.1" fill="#FFFFFF" />
    </g>
    <g id="c26e8bb7-c818-46fa-b3c5-05e7df63e909">
        <path id="e541c827-cfca-456e-ad37-44e667a648ef" d="M1258.58,113.386L1383.31,340.157L1133.86,340.157L1258.58,113.386Z" shaper:toolDia="1mm" shaper:cutDepth=".1500in" shaper:cutType="online" stroke-width="0.1" fill="none" />
    </g>
    <g id="510f99f6-17fe-4bc9-8265-d013d776d9f4">
        <ellipse id="5a7c2a69-e998-46b5-99ca-59c2029cbcce" cx="912.756" cy="226.772" rx="119.055" ry="113.386" shaper:cutDepth=".1500in" shaper:toolDia=".0638in" shaper:cutType="guide" stroke-width="0.1" fill="#0068FF" />
    </g>
    <g id="a102b9b1-e19e-4e3b-94ad-e1aef556ee29">
        <path id="65ce45b2-1307-42f8-9b79-82e9b64ca1c0" d="M680.315,128.804C680.315,124.715 678.69,120.793 675.799,117.902C672.907,115.01 668.986,113.386 664.896,113.386L471.1,113.386C466.444,113.386 461.978,115.236 458.686,118.528C455.393,121.821 453.543,126.286 453.543,130.943L453.543,326.766C453.543,330.317 454.954,333.724 457.466,336.235C459.977,338.747 463.383,340.157 466.935,340.157L667.043,340.157C670.563,340.157 673.939,338.759 676.428,336.27C678.917,333.781 680.315,330.405 680.315,326.885L680.315,128.804Z" shaper:toolDia="16mm" shaper:cutDepth=".1500in" shaper:cutType="pocket" stroke-width="0.1" fill="#7F7F7F" />
    </g>
    <g id="00c153b7-13b5-4aac-8c5c-93cdc17304c0">
        <rect id="2793d645-1eb4-4618-b1c7-42707d6689ad" x="113.386" y="113.386" width="238.11" height="226.772" shaper:cutDepth=".1500in" shaper:toolDia=".0638in" shaper:cutType="outside" stroke-width="0.1" fill="#000000" />
    </g>
</svg>