<?xml version="1.0" encoding="UTF-8" standalone="no"?>
<!DOCTYPE svg PUBLIC "-//W3C//DTD SVG 1.1//EN" "http://www.w3.org/Graphics/SVG/1.1/DTD/svg11.dtd">
<svg width="1475px" height="851px" version="1.1" xmlns="http://www.w3.org/2000/svg" xmlns:xlink="http://www.w3.org/1999/xlink" xml:space="preserve" xmlns:serif="http://www.serif.com/" style="fill-rule:evenodd;clip-rule:evenodd;stroke-linecap:round;stroke-linejoin:round;stroke-miterlimit:1.5;">
    <path id="Pen-Tool---shaper:cutDepth-35in" serif:id="Pen Tool - shaper:cutDepth=35in" d="M1135.71,525.133C1252.33,671.702 1362.48,615.842 1362.48,615.842L1351.14,513.794L1237.75,479.779L1147.04,502.456C1147.04,502.456 1019.08,378.564 1135.71,525.133Z" style="fill:none;stroke:rgb(35,31,32);stroke-width:0.24px;"/>
    <g id="SLF-Frame-Text-Tool---shaper:cutDepth-30mm" serif:id="SLF Frame Text Tool - shaper:cutDepth=30mm">
        <path d="M803.27,547.915C803.27,547.355 803.094,546.895 802.742,546.535C802.39,546.175 801.954,545.891 801.434,545.683C800.914,545.475 800.346,545.335 799.73,545.263C799.114,545.191 798.542,545.155 798.014,545.155C797.438,545.155 796.874,545.243 796.322,545.419C795.77,545.595 795.286,545.851 794.87,546.187C794.454,546.523 794.118,546.935 793.862,547.423C793.606,547.911 793.478,548.467 793.478,549.091C793.478,549.955 793.73,550.651 794.234,551.179C794.738,551.707 795.362,552.155 796.106,552.523C796.85,552.891 797.654,553.215 798.518,553.495C799.382,553.775 800.178,554.107 800.906,554.491C801.634,554.875 802.222,555.355 802.67,555.931C803.118,556.507 803.31,557.259 803.246,558.187C803.182,559.115 802.882,559.883 802.346,560.491C801.81,561.099 801.166,561.555 800.414,561.859C799.662,562.163 798.858,562.323 798.002,562.339C797.146,562.355 796.354,562.231 795.626,561.967C794.898,561.703 794.29,561.311 793.802,560.791C793.314,560.271 793.07,559.627 793.07,558.859C793.07,559.627 793.314,560.271 793.802,560.791C794.29,561.311 794.898,561.703 795.626,561.967C796.354,562.231 797.146,562.355 798.002,562.339C798.858,562.323 799.662,562.163 800.414,561.859C801.166,561.555 801.81,561.099 802.346,560.491C802.882,559.883 803.182,559.115 803.246,558.187C803.326,557.259 803.138,556.507 802.682,555.931C802.226,555.355 801.634,554.875 800.906,554.491C800.178,554.107 799.382,553.775 798.518,553.495C797.654,553.215 796.85,552.891 796.106,552.523C795.362,552.155 794.738,551.707 794.234,551.179C793.73,550.651 793.478,549.955 793.478,549.091C793.478,548.467 793.606,547.911 793.862,547.423C794.118,546.935 794.454,546.523 794.87,546.187C795.286,545.851 795.77,545.595 796.322,545.419C796.874,545.243 797.438,545.155 798.014,545.155C798.542,545.155 799.114,545.191 799.73,545.263C800.346,545.335 800.914,545.475 801.434,545.683C801.954,545.891 802.39,546.175 802.742,546.535C803.094,546.895 803.27,547.355 803.27,547.915Z" style="fill:none;fill-rule:nonzero;stroke:rgb(127,127,127);stroke-width:0.24px;stroke-linecap:butt;stroke-linejoin:miter;stroke-miterlimit:10;"/>
        <path d="M806.006,545.347L806.006,562.147L815.582,562.147L806.006,562.147L806.006,545.347Z" style="fill:none;fill-rule:nonzero;stroke:rgb(127,127,127);stroke-width:0.24px;stroke-linecap:butt;stroke-linejoin:miter;stroke-miterlimit:10;"/>
        <path d="M828.206,545.347L818.318,545.347L818.318,562.147L818.318,545.347L828.206,545.347ZM826.43,553.171L818.318,553.171L826.43,553.171Z" style="fill:none;fill-rule:nonzero;stroke:rgb(127,127,127);stroke-width:0.24px;stroke-linecap:butt;stroke-linejoin:miter;stroke-miterlimit:10;"/>
        <path d="M846.83,545.347L836.942,545.347L836.942,562.147L836.942,545.347L846.83,545.347ZM845.054,553.171L836.942,553.171L845.054,553.171Z" style="fill:none;fill-rule:nonzero;stroke:rgb(127,127,127);stroke-width:0.24px;stroke-linecap:butt;stroke-linejoin:miter;stroke-miterlimit:10;"/>
        <path d="M855.062,550.411C854.614,550.235 854.174,550.147 853.742,550.147C852.606,550.147 851.682,550.491 850.97,551.179C850.258,551.867 849.758,552.731 849.47,553.771C849.758,552.731 850.258,551.867 850.97,551.179C851.682,550.491 852.606,550.147 853.742,550.147C854.174,550.147 854.614,550.235 855.062,550.411ZM849.47,562.147C849.47,560.979 849.466,559.915 849.458,558.955C849.45,557.995 849.446,557.059 849.446,556.147C849.446,555.235 849.45,554.299 849.458,553.339C849.466,552.379 849.47,551.315 849.47,550.147C849.47,551.315 849.466,552.379 849.458,553.339C849.45,554.299 849.446,555.235 849.446,556.147C849.446,557.059 849.45,557.995 849.458,558.955C849.466,559.915 849.47,560.979 849.47,562.147Z" style="fill:none;fill-rule:nonzero;stroke:rgb(127,127,127);stroke-width:0.24px;stroke-linecap:butt;stroke-linejoin:miter;stroke-miterlimit:10;"/>
        <path d="M857.15,552.307C857.758,551.539 858.374,550.987 858.998,550.651C859.622,550.315 860.358,550.147 861.206,550.147C863.654,550.147 864.878,551.619 864.878,554.563C864.878,555.763 864.874,556.935 864.866,558.079C864.858,559.223 864.854,560.195 864.854,560.995C864.854,561.523 864.982,561.875 865.238,562.051C865.494,562.227 865.83,562.179 866.246,561.907C865.83,562.179 865.494,562.227 865.238,562.051C864.982,561.875 864.854,561.523 864.854,560.995C864.854,560.195 864.858,559.223 864.866,558.079C864.874,556.935 864.878,555.763 864.878,554.563C864.878,551.619 863.654,550.147 861.206,550.147C860.358,550.147 859.622,550.315 858.998,550.651C858.374,550.987 857.758,551.539 857.15,552.307ZM864.854,559.963C864.582,560.443 864.182,560.851 863.654,561.187C863.126,561.523 862.542,561.771 861.902,561.931C861.262,562.091 860.614,562.159 859.958,562.135C859.302,562.111 858.702,561.979 858.158,561.739C857.614,561.499 857.17,561.151 856.826,560.695C856.482,560.239 856.31,559.659 856.31,558.955C856.31,557.771 856.622,556.839 857.246,556.159C857.87,555.479 858.63,555.039 859.526,554.839C860.422,554.639 861.362,554.671 862.346,554.935C863.33,555.199 864.174,555.683 864.878,556.387C864.174,555.683 863.33,555.199 862.346,554.935C861.362,554.671 860.422,554.639 859.526,554.839C858.63,555.039 857.87,555.479 857.246,556.159C856.622,556.839 856.31,557.771 856.31,558.955C856.31,559.659 856.482,560.239 856.826,560.695C857.17,561.151 857.614,561.499 858.158,561.739C858.702,561.979 859.302,562.111 859.958,562.135C860.614,562.159 861.262,562.091 861.902,561.931C862.542,561.771 863.126,561.523 863.654,561.187C864.182,560.851 864.582,560.443 864.854,559.963Z" style="fill:none;fill-rule:nonzero;stroke:rgb(127,127,127);stroke-width:0.24px;stroke-linecap:butt;stroke-linejoin:miter;stroke-miterlimit:10;"/>
        <path d="M869.174,550.147L869.174,562.147L869.174,550.147ZM876.326,562.147L876.326,553.939C876.31,553.491 876.226,553.043 876.074,552.595C875.922,552.147 875.71,551.743 875.438,551.383C875.166,551.023 874.834,550.727 874.442,550.495C874.05,550.263 873.614,550.147 873.134,550.147C872.606,550.147 872.134,550.251 871.718,550.459C871.302,550.667 870.934,550.939 870.614,551.275C870.294,551.611 870.014,551.995 869.774,552.427C869.534,552.859 869.342,553.291 869.198,553.723C869.342,553.291 869.534,552.859 869.774,552.427C870.014,551.995 870.294,551.611 870.614,551.275C870.934,550.939 871.302,550.667 871.718,550.459C872.134,550.251 872.606,550.147 873.134,550.147C873.614,550.147 874.05,550.263 874.442,550.495C874.834,550.727 875.166,551.023 875.438,551.383C875.71,551.743 875.922,552.147 876.074,552.595C876.226,553.043 876.31,553.491 876.326,553.939L876.326,562.147ZM883.526,562.147C883.558,560.979 883.566,559.803 883.55,558.619C883.534,557.435 883.526,556.259 883.526,555.091C883.526,554.563 883.478,554.007 883.382,553.423C883.286,552.839 883.114,552.307 882.866,551.827C882.618,551.347 882.282,550.947 881.858,550.627C881.434,550.307 880.894,550.147 880.238,550.147C879.694,550.147 879.182,550.255 878.702,550.471C878.222,550.687 877.806,550.975 877.454,551.335C877.102,551.695 876.826,552.103 876.626,552.559C876.426,553.015 876.326,553.475 876.326,553.939C876.326,553.475 876.426,553.015 876.626,552.559C876.826,552.103 877.102,551.695 877.454,551.335C877.806,550.975 878.222,550.687 878.702,550.471C879.182,550.255 879.694,550.147 880.238,550.147C880.894,550.147 881.434,550.307 881.858,550.627C882.282,550.947 882.618,551.347 882.866,551.827C883.114,552.307 883.286,552.839 883.382,553.423C883.478,554.007 883.526,554.563 883.526,555.091C883.526,556.259 883.534,557.435 883.55,558.619C883.566,559.803 883.558,560.979 883.526,562.147Z" style="fill:none;fill-rule:nonzero;stroke:rgb(127,127,127);stroke-width:0.24px;stroke-linecap:butt;stroke-linejoin:miter;stroke-miterlimit:10;"/>
        <path d="M886.478,556.075L895.622,556.075L895.622,556.003C895.59,555.331 895.47,554.647 895.262,553.951C895.054,553.255 894.758,552.627 894.374,552.067C893.99,551.507 893.514,551.047 892.946,550.687C892.378,550.327 891.71,550.147 890.942,550.147C890.206,550.147 889.562,550.315 889.01,550.651C888.458,550.987 887.998,551.419 887.63,551.947C887.262,552.475 886.982,553.067 886.79,553.723C886.598,554.379 886.502,555.035 886.502,555.691C886.502,556.427 886.582,557.179 886.742,557.947C886.902,558.715 887.166,559.411 887.534,560.035C887.902,560.659 888.386,561.167 888.986,561.559C889.586,561.951 890.326,562.147 891.206,562.147C892.806,562.147 893.99,561.443 894.758,560.035C893.99,561.443 892.806,562.147 891.206,562.147C890.326,562.147 889.586,561.951 888.986,561.559C888.386,561.167 887.902,560.659 887.534,560.035C887.166,559.411 886.902,558.715 886.742,557.947C886.582,557.179 886.502,556.427 886.502,555.691C886.502,555.035 886.598,554.379 886.79,553.723C886.982,553.067 887.262,552.475 887.63,551.947C887.998,551.419 888.458,550.987 889.01,550.651C889.562,550.315 890.206,550.147 890.942,550.147C891.71,550.147 892.378,550.327 892.946,550.687C893.514,551.047 893.99,551.507 894.374,552.067C894.758,552.627 895.054,553.255 895.262,553.951C895.47,554.647 895.59,555.331 895.622,556.003L895.622,556.075L886.478,556.075Z" style="fill:none;fill-rule:nonzero;stroke:rgb(127,127,127);stroke-width:0.24px;stroke-linecap:butt;stroke-linejoin:miter;stroke-miterlimit:10;"/>
        <path d="M903.182,545.347C904.318,545.347 905.35,545.351 906.278,545.359C907.206,545.367 908.11,545.371 908.99,545.371C909.87,545.371 910.774,545.367 911.702,545.359C912.63,545.351 913.662,545.347 914.798,545.347C913.662,545.347 912.63,545.351 911.702,545.359C910.774,545.367 909.87,545.371 908.99,545.371C908.11,545.371 907.206,545.367 906.278,545.359C905.35,545.351 904.318,545.347 903.182,545.347ZM908.918,545.371C908.918,547.003 908.914,548.491 908.906,549.835C908.898,551.179 908.894,552.487 908.894,553.759C908.894,555.031 908.898,556.339 908.906,557.683C908.914,559.027 908.918,560.515 908.918,562.147C908.918,560.515 908.914,559.027 908.906,557.683C908.898,556.339 908.894,555.031 908.894,553.759C908.894,552.487 908.898,551.179 908.906,549.835C908.914,548.491 908.918,547.003 908.918,545.371Z" style="fill:none;fill-rule:nonzero;stroke:rgb(127,127,127);stroke-width:0.24px;stroke-linecap:butt;stroke-linejoin:miter;stroke-miterlimit:10;"/>
        <path d="M916.478,556.075L925.622,556.075L925.622,556.003C925.59,555.331 925.47,554.647 925.262,553.951C925.054,553.255 924.758,552.627 924.374,552.067C923.99,551.507 923.514,551.047 922.946,550.687C922.378,550.327 921.71,550.147 920.942,550.147C920.206,550.147 919.562,550.315 919.01,550.651C918.458,550.987 917.998,551.419 917.63,551.947C917.262,552.475 916.982,553.067 916.79,553.723C916.598,554.379 916.502,555.035 916.502,555.691C916.502,556.427 916.582,557.179 916.742,557.947C916.902,558.715 917.166,559.411 917.534,560.035C917.902,560.659 918.386,561.167 918.986,561.559C919.586,561.951 920.326,562.147 921.206,562.147C922.806,562.147 923.99,561.443 924.758,560.035C923.99,561.443 922.806,562.147 921.206,562.147C920.326,562.147 919.586,561.951 918.986,561.559C918.386,561.167 917.902,560.659 917.534,560.035C917.166,559.411 916.902,558.715 916.742,557.947C916.582,557.179 916.502,556.427 916.502,555.691C916.502,555.035 916.598,554.379 916.79,553.723C916.982,553.067 917.262,552.475 917.63,551.947C917.998,551.419 918.458,550.987 919.01,550.651C919.562,550.315 920.206,550.147 920.942,550.147C921.71,550.147 922.378,550.327 922.946,550.687C923.514,551.047 923.99,551.507 924.374,552.067C924.758,552.627 925.054,553.255 925.262,553.951C925.47,554.647 925.59,555.331 925.622,556.003L925.622,556.075L916.478,556.075Z" style="fill:none;fill-rule:nonzero;stroke:rgb(127,127,127);stroke-width:0.24px;stroke-linecap:butt;stroke-linejoin:miter;stroke-miterlimit:10;"/>
        <path d="M935.15,550.147C934.398,551.315 933.714,552.379 933.098,553.339C932.482,554.299 930.114,557.995 929.498,558.955C928.882,559.915 928.19,560.979 927.422,562.147C928.19,560.979 928.882,559.915 929.498,558.955C930.114,557.995 932.482,554.299 933.098,553.339C933.714,552.379 934.398,551.315 935.15,550.147ZM935.462,562.147C934.71,560.979 934.026,559.915 933.41,558.955C932.794,557.995 930.426,554.299 929.81,553.339C929.194,552.379 928.502,551.315 927.734,550.147C928.502,551.315 929.194,552.379 929.81,553.339C930.426,554.299 932.794,557.995 933.41,558.955C934.026,559.915 934.71,560.979 935.462,562.147Z" style="fill:none;fill-rule:nonzero;stroke:rgb(127,127,127);stroke-width:0.24px;stroke-linecap:butt;stroke-linejoin:miter;stroke-miterlimit:10;"/>
        <path d="M939.758,545.347L939.734,559.747C939.734,560.467 939.894,561.043 940.214,561.475C940.534,561.907 941.078,562.123 941.846,562.123C942.262,562.123 942.686,562.035 943.118,561.859C942.686,562.035 942.262,562.123 941.846,562.123C941.078,562.123 940.534,561.907 940.214,561.475C939.894,561.043 939.734,560.467 939.734,559.747L939.758,545.347ZM943.094,550.675C942.518,550.675 941.998,550.671 941.534,550.663C941.07,550.655 940.618,550.651 940.178,550.651C939.738,550.651 939.286,550.655 938.822,550.663C938.358,550.671 937.838,550.675 937.262,550.675C937.838,550.675 938.358,550.671 938.822,550.663C939.286,550.655 939.738,550.651 940.178,550.651C940.618,550.651 941.07,550.655 941.534,550.663C941.998,550.671 942.518,550.675 943.094,550.675Z" style="fill:none;fill-rule:nonzero;stroke:rgb(127,127,127);stroke-width:0.24px;stroke-linecap:butt;stroke-linejoin:miter;stroke-miterlimit:10;"/>
        <path d="M950.678,545.347C951.814,545.347 952.846,545.351 953.774,545.359C954.702,545.367 955.606,545.371 956.486,545.371C957.366,545.371 958.27,545.367 959.198,545.359C960.126,545.351 961.158,545.347 962.294,545.347C961.158,545.347 960.126,545.351 959.198,545.359C958.27,545.367 957.366,545.371 956.486,545.371C955.606,545.371 954.702,545.367 953.774,545.359C952.846,545.351 951.814,545.347 950.678,545.347ZM956.414,545.371C956.414,547.003 956.41,548.491 956.402,549.835C956.394,551.179 956.39,552.487 956.39,553.759C956.39,555.031 956.394,556.339 956.402,557.683C956.41,559.027 956.414,560.515 956.414,562.147C956.414,560.515 956.41,559.027 956.402,557.683C956.394,556.339 956.39,555.031 956.39,553.759C956.39,552.487 956.394,551.179 956.402,549.835C956.41,548.491 956.414,547.003 956.414,545.371Z" style="fill:none;fill-rule:nonzero;stroke:rgb(127,127,127);stroke-width:0.24px;stroke-linecap:butt;stroke-linejoin:miter;stroke-miterlimit:10;"/>
        <path d="M968.534,549.931C967.718,549.931 967.018,550.123 966.434,550.507C965.85,550.891 965.366,551.383 964.982,551.983C964.598,552.583 964.318,553.255 964.142,553.999C963.966,554.743 963.878,555.483 963.878,556.219C963.878,557.035 963.966,557.811 964.142,558.547C964.318,559.283 964.602,559.935 964.994,560.503C965.386,561.071 965.894,561.523 966.518,561.859C967.142,562.195 967.902,562.363 968.798,562.363C969.678,562.363 970.41,562.175 970.994,561.799C971.578,561.423 972.042,560.931 972.386,560.323C972.73,559.715 972.974,559.035 973.118,558.283C973.262,557.531 973.334,556.779 973.334,556.027C973.334,555.259 973.242,554.511 973.058,553.783C972.874,553.055 972.586,552.407 972.194,551.839C971.802,551.271 971.306,550.811 970.706,550.459C970.106,550.107 969.382,549.931 968.534,549.931C969.382,549.931 970.106,550.107 970.706,550.459C971.306,550.811 971.802,551.271 972.194,551.839C972.586,552.407 972.874,553.055 973.058,553.783C973.242,554.511 973.334,555.259 973.334,556.027C973.334,556.779 973.262,557.531 973.118,558.283C972.974,559.035 972.73,559.715 972.386,560.323C972.042,560.931 971.578,561.423 970.994,561.799C970.41,562.175 969.678,562.363 968.798,562.363C967.902,562.363 967.142,562.195 966.518,561.859C965.894,561.523 965.386,561.071 964.994,560.503C964.602,559.935 964.318,559.283 964.142,558.547C963.966,557.811 963.878,557.035 963.878,556.219C963.878,555.483 963.966,554.743 964.142,553.999C964.318,553.255 964.598,552.583 964.982,551.983C965.366,551.383 965.85,550.891 966.434,550.507C967.018,550.123 967.718,549.931 968.534,549.931Z" style="fill:none;fill-rule:nonzero;stroke:rgb(127,127,127);stroke-width:0.24px;stroke-linecap:butt;stroke-linejoin:miter;stroke-miterlimit:10;"/>
        <path d="M980.198,549.931C979.382,549.931 978.682,550.123 978.098,550.507C977.514,550.891 977.03,551.383 976.646,551.983C976.262,552.583 975.982,553.255 975.806,553.999C975.63,554.743 975.542,555.483 975.542,556.219C975.542,557.035 975.63,557.811 975.806,558.547C975.982,559.283 976.266,559.935 976.658,560.503C977.05,561.071 977.558,561.523 978.182,561.859C978.806,562.195 979.566,562.363 980.462,562.363C981.342,562.363 982.074,562.175 982.658,561.799C983.242,561.423 983.706,560.931 984.05,560.323C984.394,559.715 984.638,559.035 984.782,558.283C984.926,557.531 984.998,556.779 984.998,556.027C984.998,555.259 984.906,554.511 984.722,553.783C984.538,553.055 984.25,552.407 983.858,551.839C983.466,551.271 982.97,550.811 982.37,550.459C981.77,550.107 981.046,549.931 980.198,549.931C981.046,549.931 981.77,550.107 982.37,550.459C982.97,550.811 983.466,551.271 983.858,551.839C984.25,552.407 984.538,553.055 984.722,553.783C984.906,554.511 984.998,555.259 984.998,556.027C984.998,556.779 984.926,557.531 984.782,558.283C984.638,559.035 984.394,559.715 984.05,560.323C983.706,560.931 983.242,561.423 982.658,561.799C982.074,562.175 981.342,562.363 980.462,562.363C979.566,562.363 978.806,562.195 978.182,561.859C977.558,561.523 977.05,561.071 976.658,560.503C976.266,559.935 975.982,559.283 975.806,558.547C975.63,557.811 975.542,557.035 975.542,556.219C975.542,555.483 975.63,554.743 975.806,553.999C975.982,553.255 976.262,552.583 976.646,551.983C977.03,551.383 977.514,550.891 978.098,550.507C978.682,550.123 979.382,549.931 980.198,549.931Z" style="fill:none;fill-rule:nonzero;stroke:rgb(127,127,127);stroke-width:0.24px;stroke-linecap:butt;stroke-linejoin:miter;stroke-miterlimit:10;"/>
        <path d="M987.83,545.347C987.83,546.979 987.826,548.467 987.818,549.811C987.81,551.155 987.806,552.467 987.806,553.747C987.806,555.027 987.81,556.339 987.818,557.683C987.826,559.027 987.83,560.515 987.83,562.147C987.83,560.515 987.826,559.027 987.818,557.683C987.81,556.339 987.806,555.027 987.806,553.747C987.806,552.467 987.81,551.155 987.818,549.811C987.826,548.467 987.83,546.979 987.83,545.347Z" style="fill:none;fill-rule:nonzero;stroke:rgb(127,127,127);stroke-width:0.24px;stroke-linecap:butt;stroke-linejoin:miter;stroke-miterlimit:10;"/>
    </g>
    <g id="Frame-Text-Tool---shaper:cutDepth-30mm" serif:id="Frame Text Tool - shaper:cutDepth=30mm">
        <path d="M795.67,476.22L795.67,459.041L807.259,459.041L807.259,461.068L797.943,461.068L797.943,466.388L806.005,466.388L806.005,468.416L797.943,468.416L797.943,476.22L795.67,476.22Z" style="fill:rgb(35,31,32);fill-rule:nonzero;"/>
        <path d="M809.92,476.22L809.92,463.775L811.818,463.775L811.818,465.662C812.302,464.779 812.75,464.197 813.16,463.916C813.57,463.635 814.021,463.494 814.513,463.494C815.224,463.494 815.947,463.72 816.681,464.174L815.955,466.131C815.439,465.826 814.923,465.674 814.408,465.674C813.947,465.674 813.533,465.812 813.166,466.09C812.798,466.367 812.537,466.752 812.38,467.244C812.146,467.994 812.029,468.814 812.029,469.705L812.029,476.22L809.92,476.22Z" style="fill:rgb(35,31,32);fill-rule:nonzero;"/>
        <path d="M826.056,474.685C825.275,475.349 824.523,475.818 823.8,476.092C823.078,476.365 822.302,476.502 821.474,476.502C820.107,476.502 819.056,476.168 818.322,475.5C817.588,474.832 817.22,473.978 817.22,472.939C817.22,472.33 817.359,471.773 817.636,471.269C817.914,470.765 818.277,470.361 818.726,470.056C819.175,469.752 819.681,469.521 820.244,469.365C820.658,469.256 821.283,469.15 822.119,469.049C823.822,468.845 825.076,468.603 825.88,468.322C825.888,468.033 825.892,467.849 825.892,467.771C825.892,466.912 825.693,466.306 825.295,465.955C824.755,465.478 823.955,465.24 822.892,465.24C821.9,465.24 821.168,465.414 820.695,465.761C820.222,466.109 819.873,466.724 819.646,467.607L817.584,467.326C817.771,466.443 818.08,465.73 818.509,465.187C818.939,464.644 819.56,464.226 820.373,463.933C821.185,463.64 822.127,463.494 823.197,463.494C824.259,463.494 825.123,463.619 825.787,463.869C826.451,464.119 826.939,464.433 827.252,464.812C827.564,465.191 827.783,465.67 827.908,466.248C827.978,466.607 828.013,467.256 828.013,468.193L828.013,471.006C828.013,472.967 828.058,474.207 828.148,474.726C828.238,475.246 828.416,475.744 828.681,476.22L826.478,476.22C826.259,475.783 826.119,475.271 826.056,474.685ZM825.88,469.974C825.115,470.287 823.966,470.553 822.435,470.771C821.568,470.896 820.955,471.037 820.595,471.193C820.236,471.349 819.959,471.578 819.763,471.879C819.568,472.179 819.47,472.513 819.47,472.881C819.47,473.443 819.683,473.912 820.109,474.287C820.535,474.662 821.158,474.849 821.978,474.849C822.791,474.849 823.513,474.672 824.146,474.316C824.779,473.961 825.244,473.474 825.541,472.857C825.767,472.381 825.88,471.678 825.88,470.748L825.88,469.974Z" style="fill:rgb(35,31,32);fill-rule:nonzero;"/>
        <path d="M831.283,476.22L831.283,463.775L833.17,463.775L833.17,465.521C833.56,464.912 834.08,464.422 834.728,464.051C835.377,463.679 836.115,463.494 836.943,463.494C837.865,463.494 838.621,463.685 839.211,464.068C839.8,464.451 840.216,464.986 840.459,465.674C841.443,464.22 842.724,463.494 844.302,463.494C845.537,463.494 846.486,463.836 847.15,464.519C847.814,465.203 848.146,466.256 848.146,467.678L848.146,476.22L846.048,476.22L846.048,468.381C846.048,467.537 845.98,466.929 845.843,466.558C845.707,466.187 845.459,465.888 845.099,465.662C844.74,465.435 844.318,465.322 843.834,465.322C842.959,465.322 842.232,465.613 841.654,466.195C841.076,466.777 840.787,467.709 840.787,468.99L840.787,476.22L838.677,476.22L838.677,468.135C838.677,467.197 838.505,466.494 838.162,466.025C837.818,465.556 837.255,465.322 836.474,465.322C835.88,465.322 835.332,465.478 834.828,465.791C834.324,466.103 833.959,466.56 833.732,467.162C833.505,467.763 833.392,468.631 833.392,469.763L833.392,476.22L831.283,476.22Z" style="fill:rgb(35,31,32);fill-rule:nonzero;"/>
        <path d="M859.795,472.213L861.974,472.482C861.63,473.756 860.994,474.744 860.064,475.447C859.134,476.15 857.947,476.502 856.502,476.502C854.681,476.502 853.238,475.941 852.171,474.82C851.105,473.699 850.572,472.127 850.572,470.103C850.572,468.01 851.111,466.385 852.189,465.228C853.267,464.072 854.666,463.494 856.384,463.494C858.048,463.494 859.408,464.06 860.463,465.193C861.517,466.326 862.045,467.92 862.045,469.974C862.045,470.099 862.041,470.287 862.033,470.537L852.752,470.537C852.83,471.904 853.216,472.951 853.912,473.678C854.607,474.404 855.474,474.767 856.513,474.767C857.287,474.767 857.947,474.564 858.494,474.158C859.041,473.752 859.474,473.103 859.795,472.213ZM852.869,468.803L859.818,468.803C859.724,467.756 859.459,466.97 859.021,466.447C858.349,465.635 857.478,465.228 856.408,465.228C855.439,465.228 854.625,465.553 853.964,466.201C853.304,466.849 852.939,467.717 852.869,468.803Z" style="fill:rgb(35,31,32);fill-rule:nonzero;"/>
        <path d="M875.498,476.22L875.498,461.068L869.838,461.068L869.838,459.041L883.455,459.041L883.455,461.068L877.771,461.068L877.771,476.22L875.498,476.22Z" style="fill:rgb(35,31,32);fill-rule:nonzero;"/>
        <path d="M891.377,472.213L893.556,472.482C893.213,473.756 892.576,474.744 891.646,475.447C890.716,476.15 889.529,476.502 888.084,476.502C886.263,476.502 884.82,475.941 883.754,474.82C882.687,473.699 882.154,472.127 882.154,470.103C882.154,468.01 882.693,466.385 883.771,465.228C884.849,464.072 886.248,463.494 887.966,463.494C889.63,463.494 890.99,464.06 892.045,465.193C893.099,466.326 893.627,467.92 893.627,469.974C893.627,470.099 893.623,470.287 893.615,470.537L884.334,470.537C884.412,471.904 884.798,472.951 885.494,473.678C886.189,474.404 887.056,474.767 888.095,474.767C888.869,474.767 889.529,474.564 890.076,474.158C890.623,473.752 891.056,473.103 891.377,472.213ZM884.451,468.803L891.4,468.803C891.306,467.756 891.041,466.97 890.603,466.447C889.931,465.635 889.06,465.228 887.99,465.228C887.021,465.228 886.207,465.553 885.546,466.201C884.886,466.849 884.521,467.717 884.451,468.803Z" style="fill:rgb(35,31,32);fill-rule:nonzero;"/>
        <path d="M894.798,476.22L899.345,469.752L895.138,463.775L897.775,463.775L899.685,466.693C900.045,467.248 900.334,467.713 900.552,468.088C900.896,467.572 901.213,467.115 901.502,466.717L903.599,463.775L906.119,463.775L901.818,469.635L906.447,476.22L903.857,476.22L901.302,472.353L900.623,471.31L897.353,476.22L894.798,476.22Z" style="fill:rgb(35,31,32);fill-rule:nonzero;"/>
        <path d="M912.81,474.334L913.115,476.197C912.521,476.322 911.99,476.385 911.521,476.385C910.755,476.385 910.162,476.263 909.74,476.021C909.318,475.779 909.021,475.461 908.849,475.066C908.677,474.672 908.591,473.842 908.591,472.576L908.591,465.416L907.045,465.416L907.045,463.775L908.591,463.775L908.591,460.693L910.689,459.428L910.689,463.775L912.81,463.775L912.81,465.416L910.689,465.416L910.689,472.693C910.689,473.295 910.726,473.681 910.8,473.853C910.875,474.025 910.996,474.162 911.164,474.263C911.332,474.365 911.572,474.416 911.884,474.416C912.119,474.416 912.427,474.388 912.81,474.334Z" style="fill:rgb(35,31,32);fill-rule:nonzero;"/>
        <path d="M925.748,476.22L925.748,461.068L920.088,461.068L920.088,459.041L933.705,459.041L933.705,461.068L928.021,461.068L928.021,476.22L925.748,476.22Z" style="fill:rgb(35,31,32);fill-rule:nonzero;"/>
        <path d="M932.322,469.998C932.322,467.693 932.963,465.986 934.244,464.877C935.314,463.955 936.619,463.494 938.158,463.494C939.869,463.494 941.267,464.054 942.353,465.176C943.439,466.297 943.982,467.845 943.982,469.822C943.982,471.424 943.742,472.683 943.261,473.601C942.781,474.519 942.082,475.232 941.164,475.74C940.246,476.248 939.244,476.502 938.158,476.502C936.416,476.502 935.007,475.943 933.933,474.826C932.859,473.709 932.322,472.099 932.322,469.998ZM934.49,469.998C934.49,471.592 934.838,472.785 935.533,473.578C936.228,474.371 937.103,474.767 938.158,474.767C939.205,474.767 940.076,474.369 940.771,473.572C941.466,472.775 941.814,471.56 941.814,469.928C941.814,468.388 941.464,467.222 940.765,466.429C940.066,465.636 939.197,465.24 938.158,465.24C937.103,465.24 936.228,465.635 935.533,466.424C934.838,467.213 934.49,468.404 934.49,469.998Z" style="fill:rgb(35,31,32);fill-rule:nonzero;"/>
        <path d="M945.67,469.998C945.67,467.693 946.31,465.986 947.591,464.877C948.662,463.955 949.966,463.494 951.505,463.494C953.216,463.494 954.615,464.054 955.701,465.176C956.787,466.297 957.33,467.845 957.33,469.822C957.33,471.424 957.089,472.683 956.609,473.601C956.129,474.519 955.429,475.232 954.511,475.74C953.593,476.248 952.591,476.502 951.505,476.502C949.763,476.502 948.355,475.943 947.281,474.826C946.207,473.709 945.67,472.099 945.67,469.998ZM947.838,469.998C947.838,471.592 948.185,472.785 948.88,473.578C949.576,474.371 950.451,474.767 951.505,474.767C952.552,474.767 953.423,474.369 954.119,473.572C954.814,472.775 955.162,471.56 955.162,469.928C955.162,468.388 954.812,467.222 954.113,466.429C953.414,465.636 952.545,465.24 951.505,465.24C950.451,465.24 949.576,465.635 948.88,466.424C948.185,467.213 947.838,468.404 947.838,469.998Z" style="fill:rgb(35,31,32);fill-rule:nonzero;"/>
        <rect x="959.755" y="459.041" width="2.109" height="17.18" style="fill:rgb(35,31,32);fill-rule:nonzero;"/>
    </g>
    <path id="Heart---shaper:cutDepth-25mm" serif:id="Heart - shaper:cutDepth=25mm" d="M379.843,510.236C412.068,453.543 476.519,453.543 508.744,481.89C540.971,510.236 540.971,566.929 508.744,623.622C486.186,666.142 428.181,708.661 379.843,737.008C331.504,708.661 273.499,666.142 250.941,623.622C218.715,566.929 218.715,510.236 250.941,481.89C283.166,453.543 347.617,453.543 379.843,510.236Z" style="fill:rgb(231,232,233);"/>
    <path id="Triangle---shaper:cutDepth-20mm" serif:id="Triangle - shaper:cutDepth=20mm" d="M1258.58,113.386L1383.31,340.157L1133.86,340.157L1258.58,113.386Z" style="fill:rgb(231,232,233);"/>
    <ellipse id="Ellipse-Circle---shaper:cutDepth-15mm" serif:id="Ellipse/Circle - shaper:cutDepth=15mm" cx="912.756" cy="226.772" rx="119.055" ry="113.386" style="fill:rgb(231,232,233);"/>
    <rect id="Rectangle-with-Rounded-Corners---shaper:cutDepth-10mm" serif:id="Rectangle with Rounded Corners - shaper:cutDepth=10mm" x="453.543" y="113.386" width="226.772" height="226.772" style="fill:rgb(231,232,233);"/>
    <rect id="Rectangle---shaper:cutDepth-5mm" serif:id="Rectangle - shaper:cutDepth=5mm" x="113.386" y="113.386" width="238.11" height="226.772" style="fill:rgb(231,232,233);"/>
</svg>
