<?xml version="1.0" encoding="UTF-8" standalone="no"?>
<!DOCTYPE svg PUBLIC "-//W3C//DTD SVG 1.1//EN" "http://www.w3.org/Graphics/SVG/1.1/DTD/svg11.dtd">
<svg width="1475px" height="851px" version="1.1" xmlns="http://www.w3.org/2000/svg" xmlns:xlink="http://www.w3.org/1999/xlink" xml:space="preserve" xmlns:serif="http://www.serif.com/" style="fill-rule:evenodd;clip-rule:evenodd;stroke-linejoin:round;stroke-miterlimit:2;">
    <g>
        <ellipse id="guide-online" serif:id="guide online" cx="1098.76" cy="765.354" rx="148.488" ry="56.693" style="fill:none;stroke:rgb(0,104,255);stroke-width:0.07px;"/>
    </g>
    <g id="shaper:toolDia-12mm" serif:id="shaper:toolDia=12mm">
        <path id="Inside---shaper:toolDia-6.35mm-shaper:cutDepth-0.5in" serif:id="Inside - shaper:toolDia=6.35mm shaper:cutDepth=0.5in" d="M1135.71,525.133C1252.33,671.702 1362.48,615.842 1362.48,615.842L1351.14,513.794L1237.75,479.779L1147.04,502.456C1147.04,502.456 1019.08,378.564 1135.71,525.133Z" style="fill:white;stroke:black;stroke-width:0.99px;stroke-linejoin:miter;stroke-miterlimit:10;"/>
    </g>
    <g id="shaper:toolDia-1mm" serif:id="shaper:toolDia=1mm">
        <path id="Online" d="M1258.58,113.386L1383.31,340.157L1133.86,340.157L1258.58,113.386Z" style="fill:none;stroke:rgb(127,127,127);stroke-width:1px;stroke-linejoin:miter;stroke-miterlimit:10;"/>
    </g>
    <g>
        <ellipse id="Guide" cx="912.756" cy="226.772" rx="119.055" ry="113.386" style="fill:rgb(0,104,255);"/>
    </g>
    <g id="shaper:toolDia-16mm" serif:id="shaper:toolDia=16mm">
        <path id="Pocket" d="M680.315,128.804C680.315,124.715 678.69,120.793 675.799,117.902C672.907,115.01 668.986,113.386 664.896,113.386L471.1,113.386C466.444,113.386 461.978,115.236 458.686,118.528C455.393,121.821 453.543,126.286 453.543,130.943L453.543,326.766C453.543,330.317 454.954,333.724 457.466,336.235C459.977,338.747 463.383,340.157 466.935,340.157L667.043,340.157C670.563,340.157 673.939,338.759 676.428,336.27C678.917,333.781 680.315,330.405 680.315,326.885L680.315,128.804Z" style="fill:rgb(127,127,127);"/>
    </g>
    <g id="shaper:toolDia-0.125in" serif:id="shaper:toolDia=0.125in">
        <rect id="Outside" x="113.386" y="113.386" width="238.11" height="226.772"/>
    </g>
</svg>
